<?xml version="1.0" encoding="UTF-8" standalone="no"?>
<svg xmlns:dc="http://purl.org/dc/elements/1.1/" xmlns:cc="http://creativecommons.org/ns#" xmlns:rdf="http://www.w3.org/1999/02/22-rdf-syntax-ns#" xmlns:svg="http://www.w3.org/2000/svg" xmlns="http://www.w3.org/2000/svg" id="svg8" version="1.1" viewBox="0 0 126.71358 70.042595" height="70.042595mm" width="126.71358mm">
  <defs id="defs2">
    <marker style="overflow:visible" id="marker3843" refX="0" refY="0" orient="auto">
      <path transform="scale(-0.6)" d="M 8.7185878,4.0337352 -2.2072895,0.01601326 8.7185884,-4.0017078 c -1.7454984,2.3720609 -1.7354408,5.6174519 -6e-7,8.035443 z" style="fill:#000000;fill-opacity:1;fill-rule:evenodd;stroke:#000000;stroke-width:0.625;stroke-linejoin:round;stroke-opacity:1" id="path3841"/>
    </marker>
    <marker orient="auto" refY="0" refX="0" id="marker3737" style="overflow:visible">
      <path id="path3735" style="fill:#000000;fill-opacity:1;fill-rule:evenodd;stroke:#000000;stroke-width:0.625;stroke-linejoin:round;stroke-opacity:1" d="M 8.7185878,4.0337352 -2.2072895,0.01601326 8.7185884,-4.0017078 c -1.7454984,2.3720609 -1.7354408,5.6174519 -6e-7,8.035443 z" transform="scale(-0.6)"/>
    </marker>
    <marker style="overflow:visible" id="marker3685" refX="0" refY="0" orient="auto">
      <path transform="scale(-0.6)" d="M 8.7185878,4.0337352 -2.2072895,0.01601326 8.7185884,-4.0017078 c -1.7454984,2.3720609 -1.7354408,5.6174519 -6e-7,8.035443 z" style="fill:#000000;fill-opacity:1;fill-rule:evenodd;stroke:#000000;stroke-width:0.625;stroke-linejoin:round;stroke-opacity:1" id="path3683"/>
    </marker>
    <marker orient="auto" refY="0" refX="0" id="marker3633" style="overflow:visible">
      <path id="path3631" style="fill:#000000;fill-opacity:1;fill-rule:evenodd;stroke:#000000;stroke-width:0.625;stroke-linejoin:round;stroke-opacity:1" d="M 8.7185878,4.0337352 -2.2072895,0.01601326 8.7185884,-4.0017078 c -1.7454984,2.3720609 -1.7354408,5.6174519 -6e-7,8.035443 z" transform="scale(-0.6)"/>
    </marker>
    <marker style="overflow:visible" id="marker3533" refX="0" refY="0" orient="auto">
      <path transform="matrix(-0.8,0,0,-0.8,-10,0)" style="fill:#000000;fill-opacity:1;fill-rule:evenodd;stroke:#000000;stroke-width:1.00000003pt;stroke-opacity:1" d="M 0,0 5,-5 -12.5,0 5,5 Z" id="path3531"/>
    </marker>
    <marker style="overflow:visible" id="Arrow1Mstart" refX="0" refY="0" orient="auto">
      <path transform="matrix(0.4,0,0,0.4,4,0)" style="fill:#000000;fill-opacity:1;fill-rule:evenodd;stroke:#000000;stroke-width:1.00000003pt;stroke-opacity:1" d="M 0,0 5,-5 -12.5,0 5,5 Z" id="path893"/>
    </marker>
    <marker style="overflow:visible" id="Arrow2Lstart" refX="0" refY="0" orient="auto">
      <path transform="matrix(1.1,0,0,1.1,1.1,0)" d="M 8.7185878,4.0337352 -2.2072895,0.01601326 8.7185884,-4.0017078 c -1.7454984,2.3720609 -1.7354408,5.6174519 -6e-7,8.035443 z" style="fill:#000000;fill-opacity:1;fill-rule:evenodd;stroke:#000000;stroke-width:0.625;stroke-linejoin:round;stroke-opacity:1" id="path905"/>
    </marker>
    <marker style="overflow:visible" id="marker1492" refX="0" refY="0" orient="auto">
      <path transform="matrix(-0.4,0,0,-0.4,-4,0)" style="fill:#000000;fill-opacity:1;fill-rule:evenodd;stroke:#000000;stroke-width:1.00000003pt;stroke-opacity:1" d="M 0,0 5,-5 -12.5,0 5,5 Z" id="path1490"/>
    </marker>
    <marker style="overflow:visible" id="marker1440" refX="0" refY="0" orient="auto">
      <path transform="matrix(-0.4,0,0,-0.4,-4,0)" style="fill:#000000;fill-opacity:1;fill-rule:evenodd;stroke:#000000;stroke-width:1.00000003pt;stroke-opacity:1" d="M 0,0 5,-5 -12.5,0 5,5 Z" id="path1438"/>
    </marker>
    <marker style="overflow:visible" id="Arrow1Mend" refX="0" refY="0" orient="auto">
      <path transform="matrix(-0.4,0,0,-0.4,-4,0)" style="fill:#000000;fill-opacity:1;fill-rule:evenodd;stroke:#000000;stroke-width:1.00000003pt;stroke-opacity:1" d="M 0,0 5,-5 -12.5,0 5,5 Z" id="path896"/>
    </marker>
    <marker style="overflow:visible" id="Arrow2Mend" refX="0" refY="0" orient="auto">
      <path transform="scale(-0.6)" d="M 8.7185878,4.0337352 -2.2072895,0.01601326 8.7185884,-4.0017078 c -1.7454984,2.3720609 -1.7354408,5.6174519 -6e-7,8.035443 z" style="fill:#000000;fill-opacity:1;fill-rule:evenodd;stroke:#000000;stroke-width:0.625;stroke-linejoin:round;stroke-opacity:1" id="path914"/>
    </marker>
    <marker style="overflow:visible" id="Arrow2Mend-1" refX="0" refY="0" orient="auto">
      <path transform="scale(-0.6)" d="M 8.7185878,4.0337352 -2.2072895,0.01601326 8.7185884,-4.0017078 c -1.7454984,2.3720609 -1.7354408,5.6174519 -6e-7,8.035443 z" style="fill:#000000;fill-opacity:1;fill-rule:evenodd;stroke:#000000;stroke-width:0.625;stroke-linejoin:round;stroke-opacity:1" id="path914-2"/>
    </marker>
    <marker style="overflow:visible" id="Arrow1Mstart-7" refX="0" refY="0" orient="auto">
      <path transform="matrix(0.4,0,0,0.4,4,0)" style="fill:#000000;fill-opacity:1;fill-rule:evenodd;stroke:#000000;stroke-width:1.00000003pt;stroke-opacity:1" d="M 0,0 5,-5 -12.5,0 5,5 Z" id="path893-0"/>
    </marker>
  </defs>
  <metadata id="metadata5">
    <rdf:RDF>
      <cc:Work rdf:about="">
        <dc:format>image/svg+xml</dc:format>
        <dc:type rdf:resource="http://purl.org/dc/dcmitype/StillImage"/>
        <dc:title/>
      </cc:Work>
    </rdf:RDF>
  </metadata>
  <g transform="translate(-22.663237,-99.250769)" id="layer1">
    <switch>
    <text systemLanguage="fr" id="text855" y="111.51495" x="22.317005" style="font-style:normal;font-weight:normal;line-height:1.25;font-family:sans-serif;letter-spacing:0px;word-spacing:0px;baseline-shift:baseline;fill:#000000;fill-opacity:1;stroke:none;stroke-width:0.26458332" xml:space="preserve"><tspan style="font-size:3.52777767px" y="111.51495" x="22.317005" id="tspan853">Pignon 1 (Z1 dents)</tspan></text>
    <text systemLanguage="en" id="text47" y="111.51495" x="22.317005" style="font-style:normal;font-weight:normal;line-height:1.25;font-family:sans-serif;letter-spacing:0px;word-spacing:0px;baseline-shift:baseline;fill:#000000;fill-opacity:1;stroke:none;stroke-width:0.26458332" xml:space="preserve"><tspan style="font-size:3.52777767px" y="111.51495" x="22.317005" id="tspan45">Sprocket 1 (Z1 cogs)</tspan></text>
	</switch>
    <switch>
    <text systemLanguage="fr" id="text855-3" y="101.93105" x="70.783127" style="font-style:normal;font-weight:normal;font-size:12px;line-height:1.25;font-family:sans-serif;letter-spacing:0px;word-spacing:0px;baseline-shift:baseline;fill:#000000;fill-opacity:1;stroke:none;stroke-width:0.26458332" xml:space="preserve"><tspan id="tspan875" style="font-size:3.52777767px;stroke-width:0.26458332" y="101.93105" x="70.783127">Roue 2 (Z2 dents)</tspan></text>
    <text systemLanguage="en" id="text53" y="101.93105" x="70.783127" style="font-style:normal;font-weight:normal;font-size:12px;line-height:1.25;font-family:sans-serif;letter-spacing:0px;word-spacing:0px;baseline-shift:baseline;fill:#000000;fill-opacity:1;stroke:none;stroke-width:0.26458332" xml:space="preserve"><tspan id="tspan51" style="font-size:3.52777767px;stroke-width:0.26458332" y="101.93105" x="70.783127">Wheel 2 (Z2 cogs)</tspan></text>
	</switch>
    <path id="path879" d="m 58.131122,110.17859 c 1.305024,4.17286 2.610099,8.34588 3.915227,12.51907" style="fill:none;stroke:#000000;stroke-width:0.26499999;stroke-linecap:butt;stroke-linejoin:miter;stroke-miterlimit:4;stroke-dasharray:none;stroke-opacity:1;marker-end:url(#marker3633)"/>
    <path id="path883" d="m 103.16604,101.49233 c 2.78983,2.84511 5.57965,5.69022 8.36949,8.53534" style="fill:none;stroke:#000000;stroke-width:0.26458332px;stroke-linecap:butt;stroke-linejoin:miter;stroke-opacity:1;marker-end:url(#marker3843)"/>
    <g transform="translate(107.13981,152.05636)" id="g1226">
      <path d="m 38.70172,-1.74347 1.70199,0.42079 1.701,0.67175 v 1.30186 l -1.701,0.67175 -1.70199,0.42079 -0.10354,1.57957 1.63252,0.63934 1.59877,0.88803 -0.16993,1.29071 -1.77413,0.44399 -1.74236,0.19503 -0.30882,1.55254 1.53509,0.84696 1.46918,1.08912 -0.33694,1.25749 -1.81691,0.20861 -1.75291,-0.03406 -0.50882,1.49895 1.41141,1.04008 1.31445,1.27157 -0.49819,1.20275 -1.8286,-0.03032 -1.73346,-0.26257 -0.70013,1.41971 1.26358,1.21541 1.13723,1.43226 -0.65092,1.12744 -1.80899,-0.26875 -1.68436,-0.48659 -0.87945,1.31619 1.09413,1.36994 0.94055,1.56844 -0.79251,1.03283 -1.75844,-0.50257 -1.60644,-0.70227 -1.04372,1.19013 0.90595,1.50103 0.72779,1.6778 -0.92054,0.92054 -1.6778,-0.72779 -1.50103,-0.90595 -1.19013,1.04372 0.70227,1.60644 0.50257,1.75844 -1.03283,0.79251 -1.56844,-0.94055 -1.36994,-1.09413 -1.31619,0.87945 0.48659,1.68436 0.26875,1.80899 -1.12744,0.65092 -1.43226,-1.13723 -1.21541,-1.26358 -1.41971,0.70013 0.26257,1.73346 0.03032,1.8286 -1.20275,0.49819 -1.27157,-1.31445 -1.04008,-1.41141 -1.49895,0.50882 0.03406,1.75291 -0.20861,1.81691 L 10.26876,40.8385 9.17964,39.36932 8.33268,37.83423 6.78014,38.14305 6.58511,39.88541 6.14112,41.65954 4.85041,41.82947 3.96238,40.2307 3.32304,38.59818 l -1.57957,0.10354 -0.42079,1.70199 -0.67175,1.701 h -1.30186 l -0.67175,-1.701 -0.42079,-1.70199 -1.57957,-0.10354 -0.63934,1.63252 -0.88803,1.59877 -1.29071,-0.16993 -0.44399,-1.77413 -0.19503,-1.74236 -1.55254,-0.30882 -0.84696,1.53509 -1.08912,1.46918 -1.25749,-0.33694 -0.20861,-1.81691 0.03406,-1.75291 -1.49895,-0.50882 -1.04008,1.41141 -1.27157,1.31445 -1.20275,-0.49819 0.03032,-1.8286 0.26257,-1.73346 -1.41971,-0.70013 -1.21541,1.26358 -1.43226,1.13723 -1.12744,-0.65092 0.26875,-1.80899 0.48659,-1.68436 -1.31619,-0.87945 -1.36994,1.09413 -1.56844,0.94055 -1.03283,-0.79251 0.50257,-1.75844 0.70227,-1.60644 -1.19013,-1.04372 -1.50103,0.90595 -1.6778,0.72779 -0.92054,-0.92054 0.72779,-1.6778 0.90595,-1.50103 -1.04372,-1.19013 -1.60644,0.70227 -1.75844,0.50257 -0.79251,-1.03283 0.94055,-1.56844 1.09413,-1.36994 -0.87945,-1.31619 -1.68436,0.48659 -1.80899,0.26875 -0.65092,-1.12744 1.13723,-1.43226 1.26358,-1.21541 -0.70013,-1.41971 -1.73346,0.26257 -1.8286,0.03032 -0.49819,-1.20275 1.31445,-1.27157 1.41141,-1.04008 -0.50882,-1.49895 -1.75291,0.03406 -1.81691,-0.20861 -0.33694,-1.25749 1.46918,-1.08912 1.53509,-0.84696 -0.30882,-1.55254 -1.74236,-0.19503 -1.77413,-0.44399 -0.16993,-1.29071 1.59877,-0.88803 1.63252,-0.63934 -0.10354,-1.57957 -1.70199,-0.42079 -1.701,-0.67175 v -1.30186 l 1.701,-0.67175 1.70199,-0.42079 0.10354,-1.57957 -1.63252,-0.63934 -1.59877,-0.88803 0.16993,-1.29071 1.77413,-0.44399 1.74236,-0.19503 0.30882,-1.55254 -1.53509,-0.84696 -1.46918,-1.08912 0.33694,-1.25749 1.81691,-0.20861 1.75291,0.03406 0.50882,-1.49895 -1.41141,-1.04008 -1.31445,-1.27157 0.49819,-1.20275 1.8286,0.03032 1.73346,0.26257 0.70013,-1.41971 -1.26358,-1.21541 -1.13723,-1.43226 0.65092,-1.12744 1.80899,0.26875 1.68436,0.48659 0.87945,-1.31619 -1.09413,-1.36994 -0.94055,-1.56844 0.79251,-1.03283 1.75844,0.50257 1.60644,0.70227 1.04372,-1.19013 -0.90595,-1.50103 -0.72779,-1.6778 0.92054,-0.92054 1.6778,0.72779 1.50103,0.90595 1.19013,-1.04372 -0.70227,-1.60644 -0.50257,-1.75844 1.03283,-0.79251 1.56844,0.94055 1.36994,1.09413 1.31619,-0.87945 -0.48659,-1.68436 -0.26875,-1.80899 1.12744,-0.65092 1.43226,1.13723 1.21541,1.26358 1.41971,-0.70013 -0.26257,-1.73346 -0.03032,-1.8286 1.20275,-0.49819 1.27157,1.31445 1.04008,1.41141 1.49895,-0.50882 -0.03406,-1.75291 0.20861,-1.81691 1.25749,-0.33694 1.08912,1.46918 0.84696,1.53509 1.55254,-0.30882 0.19503,-1.74236 0.44399,-1.77413 1.29071,-0.16993 0.88803,1.59877 0.63934,1.63252 1.57957,-0.10354 0.42079,-1.70199 0.67175,-1.701 h 1.30186 l 0.67175,1.701 0.42079,1.70199 1.57957,0.10354 0.63934,-1.63252 0.88803,-1.59877 1.29071,0.16993 0.44399,1.77413 0.19503,1.74236 1.55254,0.30882 0.84696,-1.53509 1.08912,-1.46918 1.25749,0.33694 0.20861,1.81691 -0.03406,1.75291 1.49895,0.50882 1.04008,-1.41141 1.27157,-1.31445 1.20275,0.49819 -0.03032,1.8286 -0.26257,1.73346 1.41971,0.70013 1.21541,-1.26358 1.43226,-1.13723 1.12744,0.65092 -0.26875,1.80899 -0.48659,1.68436 1.31619,0.87945 1.36994,-1.09413 1.56844,-0.94055 1.03283,0.79251 -0.50257,1.75844 -0.70227,1.60644 1.19013,1.04372 1.50103,-0.90595 1.6778,-0.72779 0.92054,0.92054 -0.72779,1.6778 -0.90595,1.50103 1.04372,1.19013 1.60644,-0.70227 1.75844,-0.50257 0.79251,1.03283 -0.94055,1.56844 -1.09413,1.36994 0.87945,1.31619 1.68436,-0.48659 1.80899,-0.26875 0.65092,1.12744 -1.13723,1.43226 -1.26358,1.21541 0.70013,1.41971 1.73346,-0.26257 1.8286,-0.03032 0.49819,1.20275 -1.31445,1.27157 -1.41141,1.04008 0.50882,1.49895 1.75291,-0.03406 1.81691,0.20861 0.33694,1.25749 -1.46918,1.08912 -1.53509,0.84696 0.30882,1.55254 1.74236,0.19503 1.77413,0.44399 0.16993,1.29071 -1.59877,0.88803 -1.63252,0.63934 z" style="fill:none;stroke:#000000;stroke-width:0.26458332" id="path1222"/>
      <circle r="0.13229166" cy="0" cx="0" style="fill:none;stroke:#000000;stroke-width:0.26458332" id="path1224"/>
    </g>
    <g transform="translate(47.242241,138.76094)" id="g1255">
      <path d="m 18.4685,-1.48722 0.46392,-0.03736 1.23698,0.20261 1.71938,0.71941 V 0.60256 L 20.1694,1.32197 18.93242,1.52458 18.4685,1.48722 18.22413,3.34345 18.6819,3.42744 19.8243,3.9433 21.29889,5.08321 20.98698,6.24726 19.13999,6.49715 17.89272,6.3727 17.45428,6.21655 l -0.71647,1.72973 0.42044,0.1996 0.96995,0.79396 1.12931,1.48272 -0.60255,1.04366 -1.84873,-0.23666 -1.17257,-0.44302 -0.38308,-0.26431 -1.13975,1.48535 0.35445,0.30162 0.73142,1.01794 0.70707,1.72449 -0.85214,0.85214 -1.72449,-0.70707 -1.01794,-0.73142 -0.30162,-0.35445 -1.48535,1.13975 0.26431,0.38308 0.44302,1.17257 0.23666,1.84873 -1.04366,0.60255 L 8.93984,18.1282 8.14588,17.15825 7.94628,16.73781 6.21655,17.45428 6.3727,17.89272 6.49715,19.13999 6.24726,20.98698 5.08321,21.29889 3.9433,19.8243 3.42744,18.6819 3.34345,18.22413 1.48722,18.4685 1.52458,18.93242 1.32197,20.1694 0.60256,21.88878 h -1.20512 l -0.71941,-1.71938 -0.20261,-1.23698 0.03736,-0.46392 -1.85623,-0.24437 -0.08399,0.45777 -0.51586,1.1424 -1.13991,1.47459 -1.16405,-0.31191 -0.24989,-1.84699 0.12445,-1.24727 0.15615,-0.43844 -1.72973,-0.71647 -0.1996,0.42044 -0.79396,0.96995 -1.48272,1.12931 -1.04366,-0.60255 0.23666,-1.84873 0.44302,-1.17257 0.26431,-0.38308 -1.48535,-1.13975 -0.30162,0.35445 -1.01794,0.73142 -1.72449,0.70707 -0.85214,-0.85214 0.70707,-1.72449 0.73142,-1.01794 0.35445,-0.30162 -1.13975,-1.48535 -0.38308,0.26431 -1.17257,0.44302 -1.84873,0.23666 -0.60255,-1.04366 1.12931,-1.48272 0.96995,-0.79396 0.42044,-0.1996 -0.71647,-1.72973 -0.43844,0.15615 -1.24727,0.12445 -1.84699,-0.24989 -0.31191,-1.16405 1.47459,-1.13991 1.1424,-0.51586 0.45777,-0.08399 -0.24437,-1.85623 -0.46392,0.03736 -1.23698,-0.20261 -1.71938,-0.71941 v -1.20512 l 1.71938,-0.71941 1.23698,-0.20261 0.46392,0.03736 0.24437,-1.85623 -0.45777,-0.08399 -1.1424,-0.51586 -1.47459,-1.13991 0.31191,-1.16405 1.84699,-0.24989 1.24727,0.12445 0.43844,0.15615 0.71647,-1.72973 -0.42044,-0.1996 -0.96995,-0.79396 -1.12931,-1.48272 0.60255,-1.04366 1.84873,0.23666 1.17257,0.44302 0.38308,0.26431 1.13975,-1.48535 -0.35445,-0.30162 -0.73142,-1.01794 -0.70707,-1.72449 0.85214,-0.85214 1.72449,0.70707 1.01794,0.73142 0.30162,0.35445 1.48535,-1.13975 -0.26431,-0.38308 -0.44302,-1.17257 -0.23666,-1.84873 1.04366,-0.60255 1.48272,1.12931 0.79396,0.96995 0.1996,0.42044 1.72973,-0.71647 -0.15615,-0.43844 -0.12445,-1.24727 0.24989,-1.84699 1.16405,-0.31191 1.13991,1.47459 0.51586,1.1424 0.08399,0.45777 1.85623,-0.24437 -0.03736,-0.46392 0.20261,-1.23698 0.71941,-1.71938 h 1.20512 l 0.71941,1.71938 0.20261,1.23698 -0.03736,0.46392 1.85623,0.24437 0.08399,-0.45777 0.51586,-1.1424 1.13991,-1.47459 1.16405,0.31191 0.24989,1.84699 -0.12445,1.24727 -0.15615,0.43844 1.72973,0.71647 0.1996,-0.42044 0.79396,-0.96995 1.48272,-1.12931 1.04366,0.60255 -0.23666,1.84873 -0.44302,1.17257 -0.26431,0.38308 1.48535,1.13975 0.30162,-0.35445 1.01794,-0.73142 1.72449,-0.70707 0.85214,0.85214 -0.70707,1.72449 -0.73142,1.01794 -0.35445,0.30162 1.13975,1.48535 0.38308,-0.26431 1.17257,-0.44302 1.84873,-0.23666 0.60255,1.04366 -1.12931,1.48272 -0.96995,0.79396 -0.42044,0.1996 0.71647,1.72973 0.43844,-0.15615 1.24727,-0.12445 1.84699,0.24989 0.31191,1.16405 -1.47459,1.13991 -1.1424,0.51586 -0.45777,0.08399 z" style="fill:none;stroke:#000000;stroke-width:0.26458332" id="path1251"/>
      <circle r="0.13229166" cy="0" cx="0" style="fill:none;stroke:#000000;stroke-width:0.26458332" id="path1253"/>
    </g>
    <text id="text1264" y="149.46721" x="107.70963" style="font-style:normal;font-weight:normal;font-size:2.11666656px;line-height:1.25;font-family:sans-serif;letter-spacing:0px;word-spacing:0px;fill:#000000;fill-opacity:1;stroke:none;stroke-width:0.26458332" xml:space="preserve"><tspan id="tspan1266" style="stroke-width:0.26458332" y="149.46721" x="107.70963">O2</tspan></text>
    <text id="text1272" y="137.03918" x="47.306705" style="font-style:normal;font-weight:normal;font-size:2.11666656px;line-height:1.25;font-family:sans-serif;letter-spacing:0px;word-spacing:0px;fill:#000000;fill-opacity:1;stroke:none;stroke-width:0.26458332" xml:space="preserve"><tspan style="stroke-width:0.26458332" y="137.03918" x="47.306705" id="tspan1270">O1</tspan></text>
    <path id="path1274" d="m 46.63968,160.64972 c -0.267602,1.59531 -0.535254,3.19092 -0.802957,4.78684" style="fill:none;stroke:#000000;stroke-width:0.26458332px;stroke-linecap:butt;stroke-linejoin:miter;stroke-opacity:1"/>
    <path id="path1274-5" d="m 46.63968,160.64972 c -0.267602,1.59531 -0.535254,3.19092 -0.802957,4.78684" style="fill:none;stroke:#000000;stroke-width:0.26458332px;stroke-linecap:butt;stroke-linejoin:miter;stroke-opacity:1" transform="translate(-4.480649,-0.58989)"/>
    <path id="path1274-56" d="m 46.63968,160.64972 c -0.267602,1.59531 -0.535254,3.19092 -0.802957,4.78684" style="fill:none;stroke:#000000;stroke-width:0.26458332px;stroke-linecap:butt;stroke-linejoin:miter;stroke-opacity:1;marker-start:url(#Arrow2Mend);marker-end:url(#Arrow1Mstart)" transform="rotate(90,44.874156,162.068)"/>
	<switch>
    <text systemLanguage="fr" id="text1680" y="166.83972" x="41.359959" style="font-style:normal;font-weight:normal;font-size:2.11666656px;line-height:1.25;font-family:sans-serif;letter-spacing:0px;word-spacing:0px;fill:#000000;fill-opacity:1;stroke:none;stroke-width:0.26458332" xml:space="preserve"><tspan style="stroke-width:0.26458332" y="166.83972" x="41.359959" id="tspan1678">pas</tspan></text>
    <text systemLanguage="en" id="text74" y="166.83972" x="41.359959" style="font-style:normal;font-weight:normal;font-size:2.11666656px;line-height:1.25;font-family:sans-serif;letter-spacing:0px;word-spacing:0px;fill:#000000;fill-opacity:1;stroke:none;stroke-width:0.26458332" xml:space="preserve"><tspan style="stroke-width:0.26458332" y="166.83972" x="41.359959" id="tspan72">space width</tspan></text>
	</switch>
    <path id="path1274-3" d="m 46.63968,160.64972 c -0.267602,1.59531 -0.535254,3.19092 -0.802957,4.78684" style="fill:none;stroke:#000000;stroke-width:0.26458332px;stroke-linecap:butt;stroke-linejoin:miter;stroke-opacity:1" transform="rotate(-155.6447,82.696476,129.43668)"/>
    <path id="path1274-5-6" d="m 46.63968,160.64972 c -0.267602,1.59531 -0.535254,3.19092 -0.802957,4.78684" style="fill:none;stroke:#000000;stroke-width:0.26458332px;stroke-linecap:butt;stroke-linejoin:miter;stroke-opacity:1" transform="rotate(-155.6447,84.873151,130.21508)"/>
    <path id="path1274-56-0" d="m 46.63968,160.64972 c -0.267602,1.59531 -0.535254,3.19092 -0.802957,4.78684" style="fill:none;stroke:#000000;stroke-width:0.26458332px;stroke-linecap:butt;stroke-linejoin:miter;stroke-opacity:1;marker-start:url(#Arrow2Mend-1);marker-end:url(#Arrow1Mstart-7)" transform="rotate(-65.644703,51.493615,72.226644)"/>
	<switch>
    <text systemLanguage="fr" id="text1680-6" y="111.353" x="133.72311" style="font-style:normal;font-weight:normal;font-size:2.11666656px;line-height:1.25;font-family:sans-serif;letter-spacing:0px;word-spacing:0px;fill:#000000;fill-opacity:1;stroke:none;stroke-width:0.26458332" xml:space="preserve"><tspan style="stroke-width:0.26458332" y="111.353" x="133.72311" id="tspan1678-1">pas</tspan></text>
    <text systemLanguage="en" id="text83" y="111.353" x="133.72311" style="font-style:normal;font-weight:normal;font-size:2.11666656px;line-height:1.25;font-family:sans-serif;letter-spacing:0px;word-spacing:0px;fill:#000000;fill-opacity:1;stroke:none;stroke-width:0.26458332" xml:space="preserve"><tspan style="stroke-width:0.26458332" y="111.353" x="133.72311" id="tspan81">space width</tspan></text>
   </switch>	  
    <text id="text3077" y="111.57344" x="65.292725" style="font-style:normal;font-weight:normal;font-size:2.11666656px;line-height:1.25;font-family:sans-serif;letter-spacing:0px;word-spacing:0px;fill:#000000;fill-opacity:1;stroke:none;stroke-width:0.26458332" xml:space="preserve"><tspan id="tspan3079" style="stroke-width:0.26458332" y="111.57344" x="65.292725">D1</tspan></text>
    <text id="text3085" y="106.89622" x="70.37085" style="font-style:normal;font-weight:normal;font-size:2.11666656px;line-height:1.25;font-family:sans-serif;letter-spacing:0px;word-spacing:0px;fill:#000000;fill-opacity:1;stroke:none;stroke-width:0.26458332" xml:space="preserve"><tspan style="stroke-width:0.26458332" y="106.89622" x="70.37085" id="tspan3083">D2</tspan></text>
    <path id="path3087" d="m 66.228168,113.44433 c -0.110316,4.61652 -0.220638,9.23332 -0.330967,13.85039" style="fill:none;stroke:#000000;stroke-width:0.26458332px;stroke-linecap:butt;stroke-linejoin:miter;stroke-opacity:1;marker-end:url(#marker3685)"/>
    <path id="path3521" d="m 73.711717,107.02986 c 3.937378,2.96277 7.874717,5.9255 11.812013,8.88821" style="fill:none;stroke:#000000;stroke-width:0.26458332px;stroke-linecap:butt;stroke-linejoin:miter;stroke-opacity:1;marker-end:url(#marker3737)"/>
  </g>
</svg>